<?xml version="1.0" encoding="UTF-8" standalone="no"?>
<!DOCTYPE svg PUBLIC "-//W3C//DTD SVG 1.1//EN" "http://www.w3.org/Graphics/SVG/1.1/DTD/svg11.dtd">
<svg width="100%" height="100%" viewBox="0 0 326 326" version="1.1" xmlns="http://www.w3.org/2000/svg" xmlns:xlink="http://www.w3.org/1999/xlink" xml:space="preserve" xmlns:serif="http://www.serif.com/" style="fill-rule:evenodd;clip-rule:evenodd;stroke-linecap:round;stroke-linejoin:round;stroke-miterlimit:1.5;">
    <g transform="matrix(1,0,0,1,-1141.355997,-605.340901)">
        <g transform="matrix(1,0,0,1,-19.712157,-21.794964)">
            <path d="M1476.786,713.265L1476.786,866.325C1476.786,908.562 1442.495,942.854 1400.257,942.854L1247.198,942.854C1204.96,942.854 1170.668,908.562 1170.668,866.325L1170.668,713.265C1170.668,671.028 1204.96,636.736 1247.198,636.736L1400.257,636.736C1442.495,636.736 1476.786,671.028 1476.786,713.265Z" style="fill:white;stroke:rgb(133,95,215);stroke-width:19.2px;"/>
        </g>
        <g transform="matrix(0.363508,0,0,0.363508,1048.546571,582.543753)">
            <path d="M787.359,540.198C780.939,533.842 780.447,535.427 773.183,541.087C742.644,552.761 660.979,407.493 754.559,346.121C833.92,294.073 1030.314,651.417 1024.501,686.669C1021.978,701.965 1004.179,809.91 854.878,780.373C834.267,776.295 912.647,727.488 861.451,644.037C857.11,636.961 793.327,548.476 787.359,540.198ZM640.141,487.553C637.672,496.244 639.297,495.91 647.76,499.541C672.721,520.656 584.889,662.281 485.979,609.93C402.098,565.532 620.324,221.088 654.005,209.169C668.62,203.998 771.756,167.502 817.926,312.524C824.3,332.545 743.73,287.443 695.341,372.552C691.237,379.769 644.512,478.332 640.141,487.553ZM671.107,640.06C679.822,637.677 678.695,636.459 677.425,627.338C682.584,595.054 849.223,596.964 855.583,708.693C860.976,803.445 453.311,794.855 425.689,772.195C413.703,762.363 329.119,692.975 429.35,578.446C443.187,562.634 446.264,654.917 544.133,652.306C552.432,652.084 660.954,641.089 671.107,640.06Z" style="fill:rgb(133,96,216);stroke:rgb(18,16,38);stroke-width:0.83px;stroke-linecap:butt;stroke-miterlimit:2;"/>
        </g>
    </g>
</svg>
