<?xml version="1.0" encoding="UTF-8" standalone="no"?>
<!DOCTYPE svg PUBLIC "-//W3C//DTD SVG 1.1//EN" "http://www.w3.org/Graphics/SVG/1.1/DTD/svg11.dtd">
<svg width="100%" height="100%" viewBox="0 0 1241 274" version="1.1" xmlns="http://www.w3.org/2000/svg" xmlns:xlink="http://www.w3.org/1999/xlink" xml:space="preserve" xmlns:serif="http://www.serif.com/" style="fill-rule:evenodd;clip-rule:evenodd;stroke-linejoin:round;stroke-miterlimit:2;">
    <g transform="matrix(1,0,0,1,-156.99723,-126.156861)">
        <g>
            <g transform="matrix(0.443027,0,0,0.443027,-11.671511,37.059886)">
                <path d="M787.359,540.198C780.939,533.842 780.447,535.427 773.183,541.087C742.644,552.761 660.979,407.493 754.559,346.121C833.92,294.073 1030.314,651.417 1024.501,686.669C1021.978,701.965 1004.179,809.91 854.878,780.373C834.267,776.295 912.647,727.488 861.451,644.037C857.11,636.961 793.327,548.476 787.359,540.198ZM640.141,487.553C637.672,496.244 639.297,495.91 647.76,499.541C672.721,520.656 584.889,662.281 485.979,609.93C402.098,565.532 620.324,221.088 654.005,209.169C668.62,203.998 771.756,167.502 817.926,312.524C824.3,332.545 743.73,287.443 695.341,372.552C691.237,379.769 644.512,478.332 640.141,487.553ZM671.107,640.06C679.822,637.677 678.695,636.459 677.425,627.338C682.584,595.054 849.223,596.964 855.583,708.693C860.976,803.445 453.311,794.855 425.689,772.195C413.703,762.363 329.119,692.975 429.35,578.446C443.187,562.634 446.264,654.917 544.133,652.306C552.432,652.084 660.954,641.089 671.107,640.06Z" style="fill:url(#_Linear1);stroke:rgb(227,226,241);stroke-width:0.45px;"/>
            </g>
            <path d="M593.317,353.631L641.652,353.631L607.225,303.472C627.061,293.896 638.46,276.569 638.46,253.085C638.46,216.606 611.101,194.034 567.554,194.034L494.596,194.034L494.596,353.631L539.739,353.631L539.739,311.224L564.362,311.224L593.317,353.631ZM592.861,253.085C592.861,267.677 583.514,276.341 564.818,276.341L539.739,276.341L539.739,229.602L564.818,229.602C583.514,229.602 592.861,238.265 592.861,253.085Z" style="fill:rgb(199,185,244);fill-rule:nonzero;stroke:rgb(227,226,241);stroke-width:0.2px;"/>
            <path d="M736.27,194.034L663.312,194.034L663.312,353.631L708.455,353.631L708.455,311.908L736.27,311.908C779.817,311.908 807.177,289.336 807.177,253.085C807.177,216.606 779.817,194.034 736.27,194.034ZM733.534,276.341L708.455,276.341L708.455,229.602L733.534,229.602C752.23,229.602 761.578,238.265 761.578,253.085C761.578,267.677 752.23,276.341 733.534,276.341Z" style="fill:rgb(199,185,244);fill-rule:nonzero;stroke:rgb(227,226,241);stroke-width:0.2px;"/>
            <path d="M887.431,356.823C934.854,356.823 958.109,333.111 958.109,305.335C958.109,246.52 867.595,264.784 867.595,240.349C867.595,232.352 874.435,225.954 893.359,225.954C907.266,225.954 922.314,230.068 937.59,238.294L951.497,204.75C935.766,195.63 914.334,190.843 893.587,190.843C846.164,190.843 822.908,214.098 822.908,242.637C822.908,301.922 913.65,283.48 913.65,308.748C913.65,316.482 906.354,321.712 887.659,321.712C869.191,321.712 849.128,315.346 834.992,306.016L820.172,339.267C835.22,349.755 861.211,356.823 887.431,356.823Z" style="fill:rgb(178,157,244);fill-rule:nonzero;stroke:rgb(227,226,241);stroke-width:0.2px;"/>
            <path d="M1063.443,230.058L1032.892,305.524L1002.568,230.058L958.109,230.058L1011.004,355.227C1007.356,362.523 1002.568,365.715 994.132,365.715C987.293,365.715 979.997,362.979 974.981,358.419L959.933,388.742C968.141,395.582 982.733,399.914 995.728,399.914C1020.124,399.914 1038.363,390.566 1051.359,358.647L1104.71,230.058L1063.443,230.058Z" style="fill:rgb(178,157,244);fill-rule:nonzero;stroke:rgb(227,226,241);stroke-width:0.2px;"/>
            <path d="M1196.364,228.006C1180.86,228.006 1166.953,233.25 1157.149,243.509L1157.149,230.058L1115.882,230.058L1115.882,353.631L1159.201,353.631L1159.201,293.896C1159.201,273.377 1169.916,264.713 1183.824,264.713C1196.364,264.713 1204.116,272.237 1204.116,290.02L1204.116,353.631L1247.435,353.631L1247.435,282.952C1247.435,244.649 1225.319,228.006 1196.364,228.006Z" style="fill:rgb(178,157,244);fill-rule:nonzero;stroke:rgb(227,226,241);stroke-width:0.2px;"/>
            <path d="M1339.545,355.683C1367.588,355.683 1389.02,343.143 1397.455,321.712L1363.94,304.612C1358.012,316.24 1349.348,321.256 1339.317,321.256C1324.269,321.256 1312.413,310.768 1312.413,291.616C1312.413,272.921 1324.269,262.433 1339.317,262.433C1349.348,262.433 1358.012,267.449 1363.94,279.077L1397.455,261.977C1389.02,240.545 1367.588,228.006 1339.545,228.006C1298.05,228.006 1268.638,254.453 1268.638,291.616C1268.638,329.235 1298.05,355.683 1339.545,355.683Z" style="fill:rgb(178,157,244);fill-rule:nonzero;stroke:rgb(227,226,241);stroke-width:0.2px;"/>
        </g>
    </g>
    <defs>
        <linearGradient id="_Linear1" x1="0" y1="0" x2="1" y2="0" gradientUnits="userSpaceOnUse" gradientTransform="matrix(643.682623,0,0,585.711865,380.944437,494.191151)"><stop offset="0" style="stop-color:rgb(133,96,216);stop-opacity:1"/><stop offset="0.57" style="stop-color:rgb(146,114,222);stop-opacity:1"/><stop offset="0.79" style="stop-color:rgb(173,150,233);stop-opacity:1"/><stop offset="1" style="stop-color:rgb(199,185,244);stop-opacity:1"/></linearGradient>
    </defs>
</svg>
