<?xml version="1.0" encoding="UTF-8" standalone="no"?><!DOCTYPE svg PUBLIC "-//W3C//DTD SVG 1.1//EN" "http://www.w3.org/Graphics/SVG/1.1/DTD/svg11.dtd"><svg width="100%" height="100%" viewBox="0 0 1536 1536" version="1.1" xmlns="http://www.w3.org/2000/svg" xmlns:xlink="http://www.w3.org/1999/xlink" xml:space="preserve" xmlns:serif="http://www.serif.com/" style="fill-rule:evenodd;clip-rule:evenodd;stroke-linejoin:round;stroke-miterlimit:2;"><rect x="0" y="0" width="1536" height="1536" style="fill:#1185fe;"/><g><path d="M541.945,463.334c90.973,68.919 190.217,208.136 226.055,282.569c35.838,-74.433 135.081,-213.649 226.055,-282.569c66.163,-49.622 173.676,-88.216 173.676,34.459c0,24.811 -13.784,205.379 -22.054,234.326c-28.946,102 -132.325,128.19 -224.676,111.649c161.27,27.568 202.622,118.541 113.027,210.893c-168.163,172.298 -242.595,-44.108 -260.515,-99.243c-4.135,-11.027 -5.514,-15.162 -5.514,-11.027c0,-4.135 -1.378,0 -5.514,11.027c-17.919,55.136 -92.352,271.542 -260.515,99.243c-89.595,-92.352 -48.243,-183.325 113.027,-210.893c-92.352,16.541 -195.731,-9.648 -224.676,-111.649c-8.27,-28.946 -22.054,-209.515 -22.054,-234.326c0,-122.676 107.514,-84.081 173.676,-34.459Z" style="fill:#fff;fill-rule:nonzero;"/></g></svg>