<?xml version="1.0" encoding="UTF-8" standalone="no"?><!DOCTYPE svg PUBLIC "-//W3C//DTD SVG 1.1//EN" "http://www.w3.org/Graphics/SVG/1.1/DTD/svg11.dtd"><svg width="100%" height="100%" viewBox="0 0 1536 1536" version="1.1" xmlns="http://www.w3.org/2000/svg" xmlns:xlink="http://www.w3.org/1999/xlink" xml:space="preserve" xmlns:serif="http://www.serif.com/" style="fill-rule:evenodd;clip-rule:evenodd;stroke-linejoin:round;stroke-miterlimit:2;"><rect x="0" y="0" width="1536" height="1536" style="fill:#1185fe;"/><g><path d="M465.176,359.951c121.868,92.325 254.816,278.82 302.825,378.531c48.009,-99.711 180.956,-286.206 302.825,-378.531c88.632,-66.474 232.658,-118.175 232.658,46.162c0,33.237 -18.465,275.127 -29.544,313.904c-38.776,136.64 -177.263,171.724 -300.978,149.566c216.039,36.93 271.434,158.798 151.412,282.513c-225.272,230.811 -324.982,-59.088 -348.987,-132.947c-5.539,-14.772 -7.386,-20.311 -7.386,-14.772c0,-5.539 -1.846,0 -7.386,14.772c-24.004,73.86 -123.715,363.759 -348.987,132.947c-120.022,-123.715 -64.627,-245.583 151.412,-282.513c-123.715,22.158 -262.202,-12.925 -300.978,-149.566c-11.079,-38.776 -29.544,-280.667 -29.544,-313.904c0,-164.338 144.026,-112.636 232.658,-46.162Z" style="fill:#fff;fill-rule:nonzero;"/></g></svg>