<?xml version="1.0" encoding="UTF-8" standalone="no"?><!DOCTYPE svg PUBLIC "-//W3C//DTD SVG 1.1//EN" "http://www.w3.org/Graphics/SVG/1.1/DTD/svg11.dtd"><svg width="100%" height="100%" viewBox="0 0 1536 1536" version="1.1" xmlns="http://www.w3.org/2000/svg" xmlns:xlink="http://www.w3.org/1999/xlink" xml:space="preserve" xmlns:serif="http://www.serif.com/" style="fill-rule:evenodd;clip-rule:evenodd;stroke-linejoin:round;stroke-miterlimit:2;"><rect x="0" y="0" width="1536" height="1536" style="fill:#5865f2;"/><path d="M895.904,421.772c-7.213,14.426 -14.426,28.852 -21.639,50.492c-72.131,-14.426 -144.261,-14.426 -209.18,0c-7.213,-21.639 -14.426,-36.066 -28.852,-50.492c-64.918,14.426 -122.622,28.852 -187.541,57.705c-115.409,180.327 -151.475,346.228 -129.836,519.343c64.918,50.492 144.261,86.557 230.819,115.409c14.426,-28.852 28.852,-50.492 43.278,-79.344c-21.639,-7.213 -50.492,-21.639 -72.131,-36.066c7.213,-7.213 7.213,-14.426 14.426,-14.426c151.475,64.918 317.376,64.918 461.638,0c7.213,0 14.426,7.213 21.639,14.426c-21.639,14.426 -50.492,28.852 -79.344,36.066c14.426,28.852 28.852,57.705 50.492,79.344c86.557,-21.639 158.688,-64.918 230.819,-115.409c21.639,-194.753 -28.852,-367.868 -137.049,-519.343c-57.705,-28.852 -122.622,-43.278 -187.541,-57.705Zm-281.31,468.851c-43.278,0 -79.344,-36.066 -79.344,-86.557c0,-50.492 36.066,-93.77 79.344,-93.77c50.492,0 86.557,43.278 86.557,93.77c0,50.492 -36.066,86.557 -86.557,86.557Zm302.95,0c-43.278,0 -79.344,-36.066 -79.344,-86.557c0,-50.492 36.066,-93.77 79.344,-93.77c50.492,0 86.557,43.278 86.557,93.77c0,50.492 -36.066,86.557 -86.557,86.557Z" style="fill:#fff;fill-rule:nonzero;"/></svg>