<?xml version="1.0" encoding="UTF-8" standalone="no"?><!DOCTYPE svg PUBLIC "-//W3C//DTD SVG 1.1//EN" "http://www.w3.org/Graphics/SVG/1.1/DTD/svg11.dtd"><svg width="100%" height="100%" viewBox="0 0 1536 1536" version="1.1" xmlns="http://www.w3.org/2000/svg" xmlns:xlink="http://www.w3.org/1999/xlink" xml:space="preserve" xmlns:serif="http://www.serif.com/" style="fill-rule:evenodd;clip-rule:evenodd;stroke-linejoin:round;stroke-miterlimit:2;"><rect x="0" y="0" width="1536" height="1536" style="fill:#5865f2;"/><path d="M938.59,305.166c-9.642,19.285 -19.285,38.569 -28.927,67.497c-96.424,-19.285 -192.847,-19.285 -279.629,0c-9.642,-28.927 -19.285,-48.212 -38.569,-67.497c-86.781,19.285 -163.92,38.569 -250.702,77.139c-154.278,241.059 -202.49,462.834 -173.563,694.251c86.781,67.497 192.847,115.708 308.556,154.278c19.285,-38.569 38.569,-67.497 57.854,-106.066c-28.927,-9.642 -67.497,-28.927 -96.424,-48.212c9.642,-9.642 9.642,-19.285 19.285,-19.285c202.49,86.781 424.264,86.781 617.112,0c9.642,0 19.285,9.642 28.927,19.285c-28.927,19.285 -67.497,38.569 -106.066,48.212c19.285,38.569 38.569,77.139 67.497,106.066c115.708,-28.927 212.132,-86.781 308.556,-154.278c28.927,-260.344 -38.569,-491.761 -183.205,-694.251c-77.139,-38.569 -163.92,-57.854 -250.702,-77.139Zm-376.052,626.754c-57.854,0 -106.066,-48.212 -106.066,-115.708c0,-67.497 48.212,-125.351 106.066,-125.351c67.497,0 115.708,57.854 115.708,125.351c0,67.497 -48.212,115.708 -115.708,115.708Zm404.98,0c-57.854,0 -106.066,-48.212 -106.066,-115.708c0,-67.497 48.212,-125.351 106.066,-125.351c67.497,0 115.708,57.854 115.708,125.351c0,67.497 -48.212,115.708 -115.708,115.708Z" style="fill:#fff;fill-rule:nonzero;"/></svg>