<?xml version="1.0" encoding="UTF-8" standalone="no"?><!DOCTYPE svg PUBLIC "-//W3C//DTD SVG 1.1//EN" "http://www.w3.org/Graphics/SVG/1.1/DTD/svg11.dtd"><svg width="100%" height="100%" viewBox="0 0 1536 1536" version="1.1" xmlns="http://www.w3.org/2000/svg" xmlns:xlink="http://www.w3.org/1999/xlink" xml:space="preserve" xmlns:serif="http://www.serif.com/" style="fill-rule:evenodd;clip-rule:evenodd;stroke-linejoin:round;stroke-miterlimit:2;"><rect x="0" y="0" width="1536" height="1536" style="fill:#ff0076;"/><path d="M768,412.495c115.842,0 129.369,0.347 175.151,2.428c42.314,2.081 65.205,9.018 80.465,14.914c20.117,7.977 34.684,17.341 49.944,32.603c15.261,15.261 24.625,29.481 32.255,49.944c5.896,15.261 13.18,38.152 14.914,80.465c2.081,45.783 2.775,59.309 2.775,175.151c0,115.842 -0.693,129.369 -2.775,175.151c-1.734,42.314 -9.018,65.205 -14.914,80.465c-7.63,20.117 -16.995,34.684 -32.255,49.944c-15.261,15.261 -29.828,24.625 -49.944,32.255c-15.261,5.896 -38.152,13.18 -80.465,14.914c-45.783,2.081 -59.309,2.775 -175.151,2.775c-115.842,0 -129.369,-0.693 -175.151,-2.775c-42.314,-1.734 -65.205,-9.018 -80.465,-14.914c-20.463,-7.63 -34.684,-16.995 -49.944,-32.255c-15.261,-15.261 -24.625,-29.828 -32.255,-49.944c-6.243,-15.261 -13.18,-38.152 -15.261,-80.465c-2.081,-45.783 -2.428,-59.309 -2.428,-175.151c0,-115.842 0.347,-129.369 2.428,-175.151c2.081,-42.314 9.018,-65.205 15.261,-80.465c7.63,-20.463 16.995,-34.684 32.255,-49.944c15.261,-15.261 29.481,-24.625 49.944,-32.603c15.261,-5.896 38.152,-12.833 80.465,-14.914c45.783,-2.081 59.309,-2.428 175.151,-2.428Zm0,-78.038c-117.923,0 -132.49,0.347 -178.62,2.775c-46.129,2.081 -77.691,9.364 -105.438,20.117c-28.44,11.099 -52.718,25.666 -76.65,49.944c-24.278,23.932 -38.846,48.21 -49.944,76.65c-10.752,27.747 -18.036,59.309 -20.117,105.438c-2.428,46.129 -2.775,60.696 -2.775,178.62c0,117.577 0.347,132.49 2.775,178.62c2.081,46.129 9.364,77.691 20.117,105.438c11.099,28.44 25.666,52.718 49.944,76.65c23.932,24.278 48.21,38.846 76.65,49.944c27.747,10.752 59.309,18.036 105.438,20.117c46.129,2.081 60.696,2.775 178.62,2.775c117.577,0 132.49,-0.693 178.62,-2.775c46.129,-2.081 77.691,-9.364 105.438,-20.117c28.44,-11.099 52.718,-25.666 76.65,-49.944c24.278,-23.932 38.846,-48.21 49.944,-76.65c10.752,-27.747 18.036,-59.309 20.117,-105.438c2.081,-46.129 2.775,-61.043 2.775,-178.62c0,-117.923 -0.693,-132.49 -2.775,-178.62c-2.081,-46.129 -9.364,-77.691 -20.117,-105.438c-11.099,-28.44 -25.666,-52.718 -49.944,-76.65c-23.932,-24.278 -48.21,-38.846 -76.65,-49.944c-27.747,-10.752 -59.309,-18.036 -105.438,-20.117c-46.129,-2.428 -61.043,-2.775 -178.62,-2.775Zm-0,210.875c-123.126,0 -222.668,99.542 -222.668,222.668c0,122.779 99.542,222.668 222.668,222.668c122.779,0 222.668,-99.889 222.668,-222.668c0,-123.126 -99.889,-222.668 -222.668,-222.668Zm0,367.298c-79.772,0 -144.63,-64.858 -144.63,-144.63c0,-79.772 64.858,-144.63 144.63,-144.63c79.772,0 144.63,64.858 144.63,144.63c0,79.772 -64.858,144.63 -144.63,144.63Zm231.338,-427.993c-28.787,0 -52.025,23.238 -52.025,52.025c0,28.787 23.238,52.025 52.025,52.025c28.787,0 52.025,-23.238 52.025,-52.025c0,-28.787 -23.238,-52.025 -52.025,-52.025Z" style="fill:#fff;"/></svg>