<?xml version="1.0" encoding="UTF-8" standalone="no"?><!DOCTYPE svg PUBLIC "-//W3C//DTD SVG 1.1//EN" "http://www.w3.org/Graphics/SVG/1.1/DTD/svg11.dtd"><svg width="100%" height="100%" viewBox="0 0 1536 1536" version="1.1" xmlns="http://www.w3.org/2000/svg" xmlns:xlink="http://www.w3.org/1999/xlink" xml:space="preserve" xmlns:serif="http://www.serif.com/" style="fill-rule:evenodd;clip-rule:evenodd;stroke-linejoin:round;stroke-miterlimit:2;"><rect x="0" y="0" width="1536" height="1536" style="fill:#ff0076;"/><g><g><g id="Layer_1-2"><g><g><g><path d="M768,295.836c153.856,0 171.822,0.461 232.627,3.225c56.199,2.764 86.602,11.977 106.87,19.808c26.718,10.595 46.065,23.032 66.333,43.301c20.269,20.269 32.706,39.155 42.84,66.333c7.831,20.269 17.505,50.671 19.808,106.87c2.764,60.806 3.685,78.771 3.685,232.627c0,153.856 -0.921,171.822 -3.685,232.627c-2.303,56.199 -11.977,86.602 -19.808,106.87c-10.134,26.718 -22.572,46.065 -42.84,66.333c-20.269,20.269 -39.616,32.706 -66.333,42.84c-20.269,7.831 -50.671,17.505 -106.87,19.808c-60.806,2.764 -78.771,3.685 -232.627,3.685c-153.856,0 -171.822,-0.921 -232.627,-3.685c-56.199,-2.303 -86.602,-11.977 -106.87,-19.808c-27.178,-10.134 -46.065,-22.572 -66.333,-42.84c-20.269,-20.269 -32.706,-39.616 -42.84,-66.333c-8.292,-20.269 -17.505,-50.671 -20.269,-106.87c-2.764,-60.806 -3.225,-78.771 -3.225,-232.627c0,-153.856 0.461,-171.822 3.225,-232.627c2.764,-56.199 11.977,-86.602 20.269,-106.87c10.134,-27.178 22.572,-46.065 42.84,-66.333c20.269,-20.269 39.155,-32.706 66.333,-43.301c20.269,-7.831 50.671,-17.044 106.87,-19.808c60.806,-2.764 78.771,-3.225 232.627,-3.225Zm0,-103.646c-156.62,0 -175.967,0.461 -237.234,3.685c-61.266,2.764 -103.185,12.437 -140.037,26.718c-37.773,14.741 -70.018,34.088 -101.803,66.333c-32.245,31.785 -51.593,64.03 -66.333,101.803c-14.28,36.852 -23.954,78.771 -26.718,140.037c-3.225,61.266 -3.685,80.613 -3.685,237.234c0,156.16 0.461,175.967 3.685,237.234c2.764,61.266 12.437,103.185 26.718,140.037c14.741,37.773 34.088,70.018 66.333,101.803c31.785,32.245 64.03,51.593 101.803,66.333c36.852,14.28 78.771,23.954 140.037,26.718c61.266,2.764 80.613,3.685 237.234,3.685c156.16,0 175.967,-0.921 237.234,-3.685c61.266,-2.764 103.185,-12.437 140.037,-26.718c37.773,-14.741 70.018,-34.088 101.803,-66.333c32.245,-31.785 51.593,-64.03 66.333,-101.803c14.28,-36.852 23.954,-78.771 26.718,-140.037c2.764,-61.266 3.685,-81.074 3.685,-237.234c0,-156.62 -0.921,-175.967 -3.685,-237.234c-2.764,-61.266 -12.437,-103.185 -26.718,-140.037c-14.741,-37.773 -34.088,-70.018 -66.333,-101.803c-31.785,-32.245 -64.03,-51.593 -101.803,-66.333c-36.852,-14.28 -78.771,-23.954 -140.037,-26.718c-61.266,-3.225 -81.074,-3.685 -237.234,-3.685Zm-0,280.074c-163.53,0 -295.736,132.206 -295.736,295.736c0,163.069 132.206,295.736 295.736,295.736c163.069,0 295.736,-132.667 295.736,-295.736c0,-163.53 -132.667,-295.736 -295.736,-295.736Zm0,487.826c-105.949,0 -192.09,-86.141 -192.09,-192.09c0,-105.949 86.141,-192.09 192.09,-192.09c105.949,0 192.09,86.141 192.09,192.09c0,105.949 -86.141,192.09 -192.09,192.09Zm307.252,-568.439c-38.234,0 -69.097,30.863 -69.097,69.097c0,38.234 30.863,69.097 69.097,69.097c38.234,0 69.097,-30.863 69.097,-69.097c0,-38.234 -30.863,-69.097 -69.097,-69.097Z" style="fill:#fff;"/></g></g></g></g></g></g></svg>