<?xml version="1.0" encoding="UTF-8" standalone="no"?><!DOCTYPE svg PUBLIC "-//W3C//DTD SVG 1.1//EN" "http://www.w3.org/Graphics/SVG/1.1/DTD/svg11.dtd"><svg width="100%" height="100%" viewBox="0 0 1536 1536" version="1.1" xmlns="http://www.w3.org/2000/svg" xmlns:xlink="http://www.w3.org/1999/xlink" xml:space="preserve" xmlns:serif="http://www.serif.com/" style="fill-rule:evenodd;clip-rule:evenodd;stroke-linejoin:round;stroke-miterlimit:2;"><rect x="0" y="0" width="1536" height="1536" style="fill:url(#_Linear1);"/><g><g><g><g><path d="M1319.338,428.406c-15.105,-120.841 -135.946,-226.577 -256.787,-241.682c-30.21,0 -120.841,-15.105 -317.208,-15.105c-196.367,0 -226.577,15.105 -256.787,15.105c-120.841,15.105 -241.682,105.736 -271.892,241.682c-15.105,60.421 -15.105,135.946 -15.105,196.367c0,90.631 0,181.262 15.105,286.998c0,60.421 15.105,120.841 30.21,181.262c30.21,105.736 135.946,196.367 241.682,241.682c120.841,30.21 241.682,45.315 362.523,15.105c15.105,0 30.21,-15.105 30.21,-15.105c30.21,0 75.526,-15.105 90.631,-30.21l0,-105.736c-75.526,30.21 -151.051,30.21 -226.577,30.21c-135.946,0 -181.262,-60.421 -181.262,-90.631c-15.105,-15.105 -15.105,-45.315 -15.105,-60.421l0,-15.105c75.526,30.21 151.051,30.21 226.577,30.21l60.421,0c75.526,0 151.051,0 226.577,-15.105l15.105,0c105.736,-30.21 226.577,-105.736 241.682,-286.998l0,-362.523Z" style="fill:#fff;fill-rule:nonzero;"/></g><g><path d="M1122.971,579.457l0,317.208l-120.841,0l0,-302.103c0,-75.526 -30.21,-105.736 -90.631,-105.736c-60.421,0 -90.631,45.315 -90.631,120.841l0,166.157l-120.841,0l0,-166.157c0,-75.526 -30.21,-120.841 -90.631,-120.841c-60.421,0 -75.526,30.21 -75.526,105.736l0,302.103l-135.946,0l0,-317.208c0,-60.421 15.105,-120.841 60.421,-151.051c30.21,-45.315 75.526,-60.421 135.946,-60.421c60.421,0 105.736,30.21 135.946,75.526l30.21,45.315l30.21,-45.315c45.315,-45.315 90.631,-75.526 151.051,-75.526c60.421,0 105.736,15.105 135.946,60.421c30.21,30.21 45.315,90.631 45.315,151.051l0.002,0Z" style="fill:url(#_Linear2);fill-rule:nonzero;"/></g></g></g></g><defs><linearGradient id="_Linear1" x1="0" y1="0" x2="1" y2="0" gradientUnits="userSpaceOnUse" gradientTransform="matrix(0,1534.248628,-1639.785472,0,769.434998,-0.00093)"><stop offset="0" style="stop-color:#6364ff;stop-opacity:1"/><stop offset="1" style="stop-color:#563acc;stop-opacity:1"/></linearGradient><linearGradient id="_Linear2" x1="0" y1="0" x2="1" y2="0" gradientUnits="userSpaceOnUse" gradientTransform="matrix(0,528.07719,-774.037459,0,761.124871,367.98468)"><stop offset="0" style="stop-color:#6364ff;stop-opacity:1"/><stop offset="1" style="stop-color:#563acc;stop-opacity:1"/></linearGradient></defs></svg>