<?xml version="1.0" encoding="UTF-8" standalone="no"?><!DOCTYPE svg PUBLIC "-//W3C//DTD SVG 1.1//EN" "http://www.w3.org/Graphics/SVG/1.1/DTD/svg11.dtd"><svg width="100%" height="100%" viewBox="0 0 1536 1536" version="1.1" xmlns="http://www.w3.org/2000/svg" xmlns:xlink="http://www.w3.org/1999/xlink" xml:space="preserve" xmlns:serif="http://www.serif.com/" style="fill-rule:evenodd;clip-rule:evenodd;stroke-linejoin:round;stroke-miterlimit:2;"><rect x="0" y="0" width="1536" height="1536" style="fill:url(#_Linear1);"/><g><g><g><path d="M1179.586,513.561c-11.328,-90.624 -101.952,-169.921 -192.577,-181.249c-22.656,0 -90.624,-11.328 -237.889,-11.328c-147.265,0 -169.921,11.328 -192.577,11.328c-90.624,11.328 -181.249,79.296 -203.905,181.249c-11.328,45.313 -11.328,101.952 -11.328,147.265c0,67.968 0,135.937 11.328,215.233c0,45.313 11.328,90.624 22.656,135.937c22.656,79.296 101.952,147.265 181.249,181.249c90.624,22.656 181.249,33.984 271.873,11.328c11.328,0 22.656,-11.328 22.656,-11.328c22.656,0 56.641,-11.328 67.968,-22.656l0,-79.296c-56.641,22.656 -113.28,22.656 -169.921,22.656c-101.952,0 -135.937,-45.313 -135.937,-67.968c-11.328,-11.328 -11.328,-33.984 -11.328,-45.313l0,-11.328c56.641,22.656 113.28,22.656 169.921,22.656l45.313,0c56.641,0 113.28,0 169.921,-11.328l11.328,0c79.296,-22.656 169.921,-79.296 181.249,-215.233l0,-271.873Z" style="fill:#fff;fill-rule:nonzero;"/></g><g><path d="M1032.321,626.841l0,237.889l-90.624,0l0,-226.561c0,-56.641 -22.656,-79.296 -67.968,-79.296c-45.313,0 -67.968,33.984 -67.968,90.624l0,124.609l-90.624,0l0,-124.609c0,-56.641 -22.656,-90.624 -67.968,-90.624c-45.313,0 -56.641,22.656 -56.641,79.296l0,226.561l-101.952,0l0,-237.889c0,-45.313 11.328,-90.624 45.313,-113.28c22.656,-33.984 56.641,-45.313 101.952,-45.313c45.313,0 79.296,22.656 101.952,56.641l22.656,33.984l22.656,-33.984c33.984,-33.984 67.968,-56.641 113.28,-56.641c45.313,0 79.296,11.328 101.952,45.313c22.656,22.656 33.984,67.968 33.984,113.28l0.001,0Z" style="fill:url(#_Linear2);fill-rule:nonzero;"/></g></g></g><defs><linearGradient id="_Linear1" x1="0" y1="0" x2="1" y2="0" gradientUnits="userSpaceOnUse" gradientTransform="matrix(0,1534.248628,-1534.248628,0,769.434998,-0.00093)"><stop offset="0" style="stop-color:#6364ff;stop-opacity:1"/><stop offset="1" style="stop-color:#563acc;stop-opacity:1"/></linearGradient><linearGradient id="_Linear2" x1="0" y1="0" x2="1" y2="0" gradientUnits="userSpaceOnUse" gradientTransform="matrix(0,396.030024,-396.030024,0,760.955743,468.247923)"><stop offset="0" style="stop-color:#6364ff;stop-opacity:1"/><stop offset="1" style="stop-color:#563acc;stop-opacity:1"/></linearGradient></defs></svg>