<?xml version="1.0" encoding="UTF-8" standalone="no"?><!DOCTYPE svg PUBLIC "-//W3C//DTD SVG 1.1//EN" "http://www.w3.org/Graphics/SVG/1.1/DTD/svg11.dtd"><svg width="100%" height="100%" viewBox="0 0 1536 1536" version="1.1" xmlns="http://www.w3.org/2000/svg" xmlns:xlink="http://www.w3.org/1999/xlink" xml:space="preserve" xmlns:serif="http://www.serif.com/" style="fill-rule:evenodd;clip-rule:evenodd;stroke-linejoin:round;stroke-miterlimit:2;"><rect x="0" y="0" width="1536" height="1536" style="fill:#5865f2;"/><rect x="0" y="0" width="1536" height="1536" style="fill:#28a8ea;"/><path id="Path-3" d="M326.731,752.222c241.209,-105.736 401.463,-175.124 482.416,-208.166c229.644,-95.822 277.555,-112.343 307.292,-112.343c8.26,0 23.13,1.652 33.042,9.912c8.26,6.609 9.912,14.869 11.565,21.477c1.652,6.609 1.652,21.477 1.652,33.042c-13.217,130.517 -66.085,447.721 -94.171,594.759c-11.565,61.128 -34.695,82.606 -56.172,84.257c-47.911,3.304 -84.257,-31.39 -130.517,-62.78c-72.693,-47.911 -113.996,-77.65 -185.036,-123.908c-80.953,-52.867 -28.086,-82.606 18.174,-130.517c11.565,-13.217 223.035,-204.861 227.991,-223.035c0,-1.652 0,-9.912 -4.956,-14.869c-4.956,-3.304 -11.565,-3.304 -16.521,-1.652c-6.609,1.652 -123.908,79.301 -348.595,231.295c-33.042,21.477 -62.78,33.042 -89.214,33.042c-29.739,-1.652 -85.91,-18.174 -128.864,-31.39c-51.216,-16.521 -92.518,-24.781 -89.214,-54.52c1.652,-14.869 23.13,-29.739 61.128,-44.607l0.001,0.001Z" style="fill:#fff;"/></svg>