<?xml version="1.0" encoding="UTF-8" standalone="no"?><!DOCTYPE svg PUBLIC "-//W3C//DTD SVG 1.1//EN" "http://www.w3.org/Graphics/SVG/1.1/DTD/svg11.dtd"><svg width="100%" height="100%" viewBox="0 0 1536 1536" version="1.1" xmlns="http://www.w3.org/2000/svg" xmlns:xlink="http://www.w3.org/1999/xlink" xml:space="preserve" xmlns:serif="http://www.serif.com/" style="fill-rule:evenodd;clip-rule:evenodd;stroke-linejoin:round;stroke-miterlimit:2;"><rect x="0" y="0" width="1536" height="1536" style="fill:#28a8ea;"/><path id="Path-3" d="M394.348,761.182c199.1,-87.277 331.378,-144.552 398.199,-171.826c189.554,-79.094 229.101,-92.731 253.647,-92.731c6.818,0 19.092,1.364 27.274,8.182c6.818,5.455 8.182,12.273 9.546,17.728c1.364,5.455 1.364,17.728 1.364,27.274c-10.91,107.732 -54.548,369.561 -77.731,490.93c-9.546,50.457 -28.638,68.185 -46.366,69.548c-39.547,2.727 -69.548,-25.91 -107.732,-51.82c-60.003,-39.547 -94.095,-64.094 -152.734,-102.277c-66.821,-43.638 -23.183,-68.185 15.001,-107.732c9.546,-10.91 184.099,-169.098 188.19,-184.099c0,-1.364 0,-8.182 -4.091,-12.273c-4.091,-2.727 -9.546,-2.727 -13.637,-1.364c-5.455,1.364 -102.277,65.457 -287.74,190.917c-27.274,17.728 -51.82,27.274 -73.64,27.274c-24.547,-1.364 -70.912,-15.001 -106.368,-25.91c-42.275,-13.637 -76.367,-20.455 -73.64,-45.002c1.364,-12.273 19.092,-24.547 50.457,-36.82l0.001,0.001Z" style="fill:#fff;"/></svg>