<?xml version="1.0" encoding="UTF-8" standalone="no"?><!DOCTYPE svg PUBLIC "-//W3C//DTD SVG 1.1//EN" "http://www.w3.org/Graphics/SVG/1.1/DTD/svg11.dtd"><svg width="100%" height="100%" viewBox="0 0 1536 1536" version="1.1" xmlns="http://www.w3.org/2000/svg" xmlns:xlink="http://www.w3.org/1999/xlink" xml:space="preserve" xmlns:serif="http://www.serif.com/" style="fill-rule:evenodd;clip-rule:evenodd;stroke-linejoin:round;stroke-miterlimit:2;"><rect x="0" y="0" width="1536" height="1536"/><g><g><path d="M642.844,632.283l0,-51.288c-17.096,0 -34.192,-2.849 -51.288,-2.849c-216.551,0 -390.361,173.81 -390.361,387.512c0,131.07 65.535,247.894 168.112,319.127c-65.535,-68.384 -105.426,-162.413 -105.426,-264.99c0,-210.852 168.112,-381.813 378.964,-387.512" style="fill:#25f4ee;fill-rule:nonzero;"/></g><g><path d="M652.01,1196.186c96.878,0 173.81,-74.083 176.66,-168.112l0,-846.257l153.865,0c-2.849,-17.096 -2.849,-37.042 -2.849,-54.138l-210.852,0l0,846.257c-5.699,94.029 -82.631,170.961 -179.509,170.961c-28.494,0 -56.987,-8.548 -79.782,-22.795c31.343,45.59 82.631,74.083 142.468,74.083" style="fill:#25f4ee;fill-rule:nonzero;"/></g><g><path d="M1272.324,467.678l0,-45.59c-59.836,0 -113.974,-17.096 -159.564,-48.439c39.891,48.439 96.878,79.782 159.564,94.029" style="fill:#25f4ee;fill-rule:nonzero;"/></g><g><path d="M1112.491,374.967c-45.59,-54.138 -71.234,-119.673 -71.234,-193.756l-56.987,0c14.247,79.782 62.686,148.166 128.221,193.756" style="fill:#fe2c55;fill-rule:nonzero;"/></g><g><path d="M590.518,789.354c-96.878,0 -176.66,79.782 -176.66,176.66c0,68.384 37.042,128.221 94.029,156.714c-19.945,-28.494 -34.192,-62.686 -34.192,-102.577c0,-96.878 79.782,-176.66 179.509,-176.66c17.096,0 34.192,2.849 51.288,8.548l0,-216.551c-17.096,-2.849 -34.192,-2.849 -51.288,-2.849l-11.397,0l0,165.262c-14.247,-5.699 -34.192,-8.548 -51.288,-8.548" style="fill:#fe2c55;fill-rule:nonzero;"/></g><g><path d="M1272.324,468.034l0,165.262c-108.275,0 -210.852,-37.042 -293.483,-96.878l0,430.252c0,213.701 -173.81,387.512 -387.512,387.512c-82.631,0 -159.564,-25.644 -222.249,-68.384c71.234,74.083 170.961,122.522 282.086,122.522c213.701,0 390.361,-173.81 390.361,-387.512l0,-430.252c82.631,59.836 182.359,94.029 293.483,94.029l0,-210.852c-22.795,0 -42.74,0 -62.686,-5.699" style="fill:#fe2c55;fill-rule:nonzero;"/></g><g><path d="M978.82,965.573l0,-427.403c82.631,59.836 185.208,94.029 293.483,94.029l0,-165.262c-62.686,-11.397 -119.673,-45.59 -159.564,-94.029c-65.535,-42.74 -113.974,-111.125 -128.221,-190.907l-153.865,0l-2.849,843.408c-2.849,96.878 -79.782,170.961 -176.66,170.961c-56.987,0 -111.125,-28.494 -142.468,-74.083c-56.987,-28.494 -96.878,-88.33 -96.878,-156.714c0,-96.878 79.782,-176.66 179.509,-176.66c17.096,0 34.192,2.849 51.288,8.548l0,-165.262c-210.852,5.699 -378.964,176.66 -378.964,387.512c0,102.577 39.891,196.605 105.426,264.99c62.686,42.74 139.618,71.234 222.249,71.234c213.701,0 387.512,-176.66 387.512,-390.361" style="fill:#fff;fill-rule:nonzero;"/></g></g></svg>