<?xml version="1.0" encoding="UTF-8" standalone="no"?><!DOCTYPE svg PUBLIC "-//W3C//DTD SVG 1.1//EN" "http://www.w3.org/Graphics/SVG/1.1/DTD/svg11.dtd"><svg width="100%" height="100%" viewBox="0 0 1536 1536" version="1.1" xmlns="http://www.w3.org/2000/svg" xmlns:xlink="http://www.w3.org/1999/xlink" xml:space="preserve" xmlns:serif="http://www.serif.com/" style="fill-rule:evenodd;clip-rule:evenodd;stroke-linejoin:round;stroke-miterlimit:2;"><rect x="0" y="0" width="1536" height="1536" style="fill:#f03;"/><g><g><path d="M643.396,956.144l324.533,-189.815l-324.533,-186.652l0,376.467Zm-362.342,224.615c-53.564,-15.818 -97.675,-56.945 -113.429,-110.725c-25.206,-98.071 -25.206,-303.704 -25.206,-303.704c0,0 0,-202.469 25.206,-300.541c15.754,-53.781 59.865,-94.908 113.429,-110.725c94.524,-25.309 485.224,-25.309 485.224,-25.309c0,0 393.85,0 488.374,25.309c56.714,15.818 97.675,56.945 110.278,110.725c28.357,98.071 28.357,300.541 28.357,300.541c0,0 0,205.633 -28.357,303.704c-12.603,53.781 -53.564,94.908 -110.278,110.725c-94.524,25.309 -488.374,25.309 -488.374,25.309c0,0 -390.7,0 -485.224,-25.309" style="fill:#fff;fill-rule:nonzero;"/></g></g></svg>